<svg width="48" height="48" viewBox="0 0 48 48" fill="none" xmlns="http://www.w3.org/2000/svg">
<circle cx="24" cy="24" r="24" fill="#38569A"/>
<path d="M29.1422 13.7181L26.4745 13.7139C23.4775 13.7139 21.5407 15.701 21.5407 18.7765V21.1107H18.8585C18.6267 21.1107 18.439 21.2986 18.439 21.5304V24.9124C18.439 25.1442 18.6269 25.3319 18.8585 25.3319H21.5407V33.8658C21.5407 34.0976 21.7284 34.2853 21.9602 34.2853H25.4597C25.6914 34.2853 25.8791 34.0974 25.8791 33.8658V25.3319H29.0153C29.247 25.3319 29.4347 25.1442 29.4347 24.9124L29.436 21.5304C29.436 21.4191 29.3917 21.3126 29.3132 21.2338C29.2346 21.155 29.1276 21.1107 29.0163 21.1107H25.8791V19.132C25.8791 18.1809 26.1058 17.6981 27.3447 17.6981L29.1417 17.6975C29.3733 17.6975 29.561 17.5096 29.561 17.278V14.1376C29.561 13.9063 29.3735 13.7186 29.1422 13.7181Z" fill="white"/>
</svg>
