<svg width="48" height="48" viewBox="0 0 48 48" fill="none" xmlns="http://www.w3.org/2000/svg">
<circle cx="24" cy="24" r="23.5" fill="white" stroke="#E8E8E8"/>
<path d="M18.2733 26.1457L17.5573 28.8189L14.9401 28.8742C14.1579 27.4235 13.7143 25.7637 13.7143 23.9998C13.7143 22.2942 14.1291 20.6858 14.8644 19.2695H14.8649L17.195 19.6967L18.2157 22.0128C18.002 22.6356 17.8856 23.3041 17.8856 23.9998C17.8857 24.7549 18.0224 25.4783 18.2733 26.1457Z" fill="#FBBB00"/>
<path d="M34.106 22.0781C34.2241 22.7003 34.2857 23.3429 34.2857 23.9996C34.2857 24.736 34.2083 25.4543 34.0608 26.1472C33.5601 28.505 32.2517 30.5638 30.4393 32.0208L30.4388 32.0202L27.504 31.8705L27.0886 29.2776C28.2912 28.5723 29.2311 27.4685 29.7262 26.1472H24.2261V22.0781H29.8064H34.106Z" fill="#518EF8"/>
<path d="M30.4387 32.0202L30.4393 32.0208C28.6766 33.4376 26.4374 34.2853 24 34.2853C20.0829 34.2853 16.6773 32.096 14.94 28.874L18.2733 26.1455C19.1419 28.4637 21.3782 30.114 24 30.114C25.1268 30.114 26.1826 29.8094 27.0885 29.2775L30.4387 32.0202Z" fill="#28B446"/>
<path d="M30.5654 16.0818L27.2332 18.8098C26.2957 18.2238 25.1874 17.8852 24 17.8852C21.319 17.8852 19.0408 19.6112 18.2157 22.0125L14.865 19.2693H14.8644C16.5762 15.9688 20.0248 13.7139 24 13.7139C26.4957 13.7139 28.784 14.6029 30.5654 16.0818Z" fill="#F14336"/>
</svg>
